<?xml version="1.0" encoding="UTF-8"?>
<!-- Generated by Pixelmator Pro 3.7.1 -->
<svg width="1024" height="1024" viewBox="0 0 1024 1024" xmlns="http://www.w3.org/2000/svg">
    <path id="Rounded-Rectangle" fill="#f5f5f5" fill-rule="evenodd" stroke="none" d="M 0 768 C 0 909.384888 114.615105 1024 256 1024 L 768 1024 C 909.384888 1024 1024 909.384888 1024 768 L 1024 256 C 1024 114.615112 909.384888 0 768 0 L 256 0 C 114.615105 0 0 114.615112 0 256 Z"/>
    <path id="K" fill="#000000" fill-rule="evenodd" stroke="none" d="M 197.753021 828 L 325.7323 828 L 325.7323 477.740906 L 578.322998 828 L 750.084656 828 L 450.343719 438.449036 L 699.566528 64.614868 L 542.398987 64.614868 L 325.7323 400.279785 L 325.7323 64.614868 L 197.753021 64.614868 Z"/>
    <clipPath id="clipPath1">
        <path clip-rule="evenodd" d="M -0 601.600018 C -0 757.068219 -0 834.802304 32.641021 893.087048 C 55.709865 934.279438 89.720577 968.290146 130.912967 991.35899 C 189.197711 1024.000012 266.931781 1024.000012 422.399982 1024.000012 L 601.599964 1024 C 757.068164 1024 834.802234 1024 893.087024 991.358979 C 934.279407 968.290135 968.290149 934.279423 991.358936 893.087033 C 1023.999988 834.802289 1023.999988 757.068219 1023.999988 601.600018 L 1023.999988 422.400036 C 1023.999988 266.931836 1023.999988 189.197766 991.358936 130.912976 C 968.290088 89.720593 934.279407 55.709851 893.087024 32.641064 C 834.802295 1.2e-05 757.068164 1.2e-05 601.599964 1.2e-05 L 422.399982 1.2e-05 C 266.931781 1.2e-05 189.197696 1.2e-05 130.912952 32.641064 C 89.720562 55.709912 55.709854 89.720593 32.64101 130.912976 C -1.2e-05 189.197705 -1.2e-05 266.931836 -1.2e-05 422.400036 Z"/>
    </clipPath>
    <g id="g1" clip-path="url(#clipPath1)">
        <path id="path1" fill="#000000" fill-rule="evenodd" stroke="none" d="M 352.753021 948 L 480.7323 948 L 480.7323 597.740906 L 733.322998 948 L 905.084656 948 L 605.34375 558.449036 L 854.566528 184.614868 L 697.398987 184.614868 L 480.7323 520.279785 L 480.7323 184.614868 L 352.753021 184.614868 Z"/>
        <path id="path2" fill="#f5f5f5" fill-rule="evenodd" stroke="none" d="M 288.753021 1012 L 544.7323 1012 L 544.7323 795.904053 L 681.413208 985.434937 L 700.57074 1012 L 1035.082764 1012 L 955.807129 908.971436 L 684.042297 555.77887 L 974.151611 120.614868 L 662.535217 120.614868 L 544.7323 303.117798 L 544.7323 120.614868 L 288.753021 120.614868 L 288.753021 1012 Z M 480.7323 948 L 352.753021 948 L 352.753021 184.614868 L 480.7323 184.614868 L 480.7323 520.279785 L 697.398987 184.614868 L 854.566528 184.614868 L 605.34375 558.449036 L 905.084656 948 L 733.322998 948 L 480.7323 597.740906 L 480.7323 948 Z"/>
    </g>
</svg>
